<svg width="26" height="70" viewBox="0 0 26 70" fill="none" xmlns="http://www.w3.org/2000/svg">
<path d="M2.1956 6.2708L12.098 2.77899L13.804 7.61702C14.243 8.86189 14.3364 9.87868 14.0844 10.6674C13.8356 11.4655 13.3246 12.001 12.5513 12.2736C12.0326 12.4566 11.535 12.4889 11.0585 12.3706C10.5915 12.249 10.1761 12.0031 9.81234 11.633C9.44856 11.2629 9.16524 10.7903 8.96238 10.215L9.63716 10.2792C9.85664 10.9017 9.94745 11.49 9.90957 12.0441C9.88113 12.5949 9.71541 13.0722 9.41243 13.4759C9.11278 13.8891 8.67531 14.1971 8.10003 14.3999C7.25125 14.6992 6.46832 14.5989 5.75123 14.0989C5.04358 13.5956 4.46029 12.6932 4.00137 11.3918L2.1956 6.2708ZM4.72456 7.93978L5.66735 10.6134C5.87686 11.2076 6.12913 11.6223 6.42417 11.8576C6.73196 12.0989 7.09804 12.1448 7.52243 11.9952C7.93739 11.8488 8.18902 11.5851 8.27733 11.2041C8.37839 10.8291 8.32416 10.3446 8.11466 9.75045L7.11201 6.90705L8.78127 6.31843L9.64424 8.76573C9.84045 9.32215 10.0844 9.71329 10.3761 9.93913C10.6806 10.1711 11.0309 10.2172 11.427 10.0775C11.8136 9.9412 12.0481 9.68888 12.1303 9.32058C12.2252 8.95839 12.1746 8.49908 11.9784 7.94267L11.1753 5.66512L4.72456 7.93978Z" fill="white"/>
<path d="M6.20182 18.8669L16.4875 16.7562L17.4011 21.2084C17.5901 22.1292 17.6011 22.9538 17.4341 23.6823C17.2769 24.4087 16.9563 25.0104 16.4724 25.4875C15.9884 25.9645 15.3594 26.2824 14.5856 26.4412C13.8215 26.598 13.1231 26.5525 12.4903 26.3046C11.8674 26.0547 11.3406 25.6269 10.9101 25.0211C10.4795 24.4153 10.1697 23.652 9.98076 22.7311L9.33849 19.6014L10.5989 20.4452L6.69031 21.2473L6.20182 18.8669ZM7.54365 25.4057L10.7482 22.0683L11.2698 24.6104L8.07134 27.9771L7.54365 25.4057ZM10.3344 20.4995L11.234 19.2124L11.8491 22.2099C11.9999 22.9446 12.2692 23.461 12.657 23.7591C13.0547 24.0552 13.5327 24.146 14.0911 24.0314C14.6592 23.9148 15.0628 23.6431 15.3019 23.2164C15.541 22.7896 15.5852 22.2089 15.4344 21.4742L14.8193 18.4766L16.1678 19.3024L10.3344 20.4995Z" fill="white"/>
<path d="M8.36465 30.5143L19.1496 34.4938L19.3074 36.8886L9.13883 42.2638L8.97117 39.7193L17.9686 35.2781L18.0318 36.2361L8.52836 32.9989L8.36465 30.5143ZM10.7636 32.7013L12.647 33.2236L13.0021 38.6119L11.2045 39.3918L10.7636 32.7013Z" fill="white"/>
<path d="M11.1544 47.4406L13.9619 47.5044L18.8881 52.8914L18.6971 55.5846L14.1548 50.7211L12.8139 49.2726L11.1544 47.4406ZM8.9143 45.1012L19.388 45.8441L19.2171 48.253L8.74343 47.5101L8.9143 45.1012ZM8.40594 52.2682L13.2337 48.8662L14.8419 50.5743L8.20536 55.0961L8.40594 52.2682Z" fill="white"/>
<path d="M13.2427 61.7182L12.2216 66.669L10.3706 66.2873L11.3917 61.3365L13.2427 61.7182ZM8.97541 61.0219L7.82097 66.6191L5.91117 66.2252L7.55344 58.2628L17.837 60.3838L16.2341 68.1552L14.3243 67.7613L15.4394 62.3551L8.97541 61.0219Z" fill="white"/>
</svg>
