<svg width="56" height="56" viewBox="0 0 56 56" fill="none" xmlns="http://www.w3.org/2000/svg">
<mask id="path-1-inside-1_59_249" fill="white">
<path d="M55.8941 28.2471C55.8941 43.4349 43.582 55.7471 28.3941 55.7471C13.2063 55.7471 0.894135 43.4349 0.894135 28.2471C0.894135 13.0592 13.2063 0.74707 28.3941 0.74707C43.582 0.74707 55.8941 13.0592 55.8941 28.2471ZM7.76913 28.2471C7.76913 39.6379 17.0033 48.8721 28.3941 48.8721C39.785 48.8721 49.0191 39.6379 49.0191 28.2471C49.0191 16.8562 39.785 7.62207 28.3941 7.62207C17.0033 7.62207 7.76913 16.8562 7.76913 28.2471Z"/>
</mask>
<path d="M55.8941 28.2471C55.8941 43.4349 43.582 55.7471 28.3941 55.7471C13.2063 55.7471 0.894135 43.4349 0.894135 28.2471C0.894135 13.0592 13.2063 0.74707 28.3941 0.74707C43.582 0.74707 55.8941 13.0592 55.8941 28.2471ZM7.76913 28.2471C7.76913 39.6379 17.0033 48.8721 28.3941 48.8721C39.785 48.8721 49.0191 39.6379 49.0191 28.2471C49.0191 16.8562 39.785 7.62207 28.3941 7.62207C17.0033 7.62207 7.76913 16.8562 7.76913 28.2471Z" stroke="black" stroke-width="3.8844" mask="url(#path-1-inside-1_59_249)"/>
<path d="M7.8857 31.5099H14.4883C19.8515 31.5099 24.1993 35.8577 24.1993 41.2209V49.2218M49.3688 31.5099H40.6688C35.3055 31.5099 30.9577 35.8577 30.9577 41.2209V49.2218" stroke="black" stroke-width="1.9422"/>
<path d="M7.41943 26.8485L16.1356 26.8486C18.3049 26.8486 20.4007 26.0631 22.0356 24.6373L22.8477 23.9292C26.0101 21.1713 30.7824 21.3885 33.6813 24.4221V24.4221C35.1623 25.9719 37.2126 26.8485 39.3561 26.8485L49.3686 26.8485" stroke="black" stroke-width="1.9422"/>
<circle cx="28.0292" cy="29.0292" r="2.05811" stroke="black" stroke-width="1.9422"/>
</svg>
