<svg width="70" height="106" viewBox="0 0 70 106" fill="none" xmlns="http://www.w3.org/2000/svg">
<path d="M25.4374 96.8877L16.9187 96.7352L16.8586 100.095L14.8789 100.059L15.0427 90.9107L17.0224 90.9461L16.9622 94.3056L25.4809 94.4581L25.4374 96.8877Z" fill="white"/>
<path d="M16.5548 78.7965L16.9037 76.3917L27.2949 77.8993L26.946 80.3041L16.5548 78.7965ZM26.2611 85.0247L25.9122 87.4295L15.521 85.9219L15.8699 83.5171L26.2611 85.0247ZM22.7114 79.5079L21.9748 84.5847L19.9411 84.2897L20.6777 79.2128L22.7114 79.5079Z" fill="white"/>
<path d="M28.352 73.6071L18.2549 70.7266L19.5018 66.356C19.7597 65.452 20.1309 64.7156 20.6156 64.1468C21.0906 63.5752 21.653 63.1896 22.3026 62.9902C22.9522 62.7908 23.6569 62.7994 24.4166 63.0161C25.1667 63.2301 25.765 63.5932 26.2116 64.1054C26.6486 64.6148 26.9181 65.2377 27.0201 65.9739C27.122 66.7101 27.044 67.5301 26.7861 68.4341L25.9096 71.5065L25.1818 70.1758L29.0187 71.2704L28.352 73.6071ZM30.1833 67.1883L25.7993 68.6673L26.5112 66.1719L30.9034 64.664L30.1833 67.1883ZM25.4414 70.2498L24.0489 70.9757L24.8884 68.0331C25.0941 67.3118 25.0939 66.7294 24.8877 66.2858C24.6718 65.8395 24.2898 65.5381 23.7417 65.3818C23.184 65.2226 22.7005 65.2771 22.2913 65.5451C21.882 65.8131 21.5745 66.3077 21.3688 67.029L20.5293 69.9716L19.7149 68.6161L25.4414 70.2498Z" fill="white"/>
<path d="M34.5477 56.3912C34.2156 57.1518 33.7837 57.8034 33.2521 58.346C32.7246 58.8795 32.1322 59.2864 31.4751 59.5669C30.8219 59.8382 30.1349 59.9746 29.414 59.9763C28.6971 59.9687 27.9812 59.8089 27.2664 59.4968C26.5516 59.1846 25.9478 58.7682 25.455 58.2474C24.9662 57.7176 24.6013 57.1163 24.3604 56.4436C24.1194 55.771 24.0153 55.0599 24.048 54.3104C24.0807 53.5608 24.2611 52.8103 24.5893 52.0588C24.9214 51.2982 25.3493 50.6557 25.8729 50.1314C26.4005 49.598 26.9908 49.1956 27.644 48.9243C28.3011 48.6439 28.9901 48.5028 29.711 48.5012C30.4228 48.4956 31.1406 48.6508 31.8646 48.967C32.5794 49.2791 33.1858 49.7021 33.6838 50.236C34.1726 50.7659 34.5374 51.3672 34.7784 52.0398C35.0142 52.6993 35.1157 53.4038 35.083 54.1534C35.0543 54.8938 34.8759 55.6397 34.5477 56.3912ZM32.6447 55.5765C32.8328 55.1458 32.9316 54.7197 32.941 54.2983C32.9545 53.8677 32.8838 53.4549 32.7289 53.0599C32.574 52.6649 32.3407 52.312 32.029 52.0013C31.7213 51.6815 31.3384 51.4215 30.8801 51.2214C30.4219 51.0213 29.9709 50.9171 29.5272 50.9088C29.0874 50.8914 28.67 50.9601 28.275 51.1149C27.884 51.2607 27.5352 51.4848 27.2285 51.7873C26.9218 52.0899 26.6744 52.4565 26.4863 52.8872C26.2982 53.3179 26.1974 53.7486 26.184 54.1792C26.1745 54.6006 26.2473 55.0089 26.4021 55.4038C26.557 55.7988 26.7883 56.1563 27.096 56.4761C27.4077 56.7868 27.7927 57.0422 28.2509 57.2423C28.6999 57.4384 29.1489 57.5472 29.5979 57.5687C30.0416 57.5769 30.459 57.5082 30.85 57.3625C31.245 57.2077 31.5958 56.9789 31.9025 56.6764C32.2092 56.3739 32.4566 56.0072 32.6447 55.5765Z" fill="white"/>
<path d="M39.5006 46.4277L32.1838 42.0626L30.4623 44.9482L28.762 43.9337L33.4498 36.0758L35.1502 37.0903L33.4288 39.9758L40.7456 44.3409L39.5006 46.4277Z" fill="white"/>
<path d="M45.9907 36.717L39.2215 31.5432L37.1811 34.2127L35.608 33.0103L41.1645 25.7406L42.7376 26.943L40.6972 29.6125L47.4663 34.7864L45.9907 36.717Z" fill="white"/>
<path d="M52.0396 29.3784L44.4819 22.0892L46.1688 20.3401L52.3013 26.2548L55.9563 22.4651L57.3815 23.8397L52.0396 29.3784Z" fill="white"/>
<path d="M58.1444 14.9455L62.0593 11.7475L63.2549 13.2112L59.3401 16.4092L58.1444 14.9455ZM61.0168 18.1773L65.4428 14.5617L66.6764 16.0719L60.3801 21.2152L53.7375 13.0835L59.8827 8.06356L61.1164 9.57374L56.8414 13.0659L61.0168 18.1773Z" fill="white"/>
</svg>
